HIERARCHY
ROOT root
{
	OFFSET	0	13.1	24.9
	CHANNELS 6  Xposition Yposition Zposition Xrotation Yrotation Zrotation
	JOINT spine_1
	{
		OFFSET	0	9.99999	0
		CHANNELS 3  Xrotation Yrotation Zrotation
		JOINT spine_2
		{
			OFFSET	0	112	-10
			CHANNELS 3  Xrotation Yrotation Zrotation
			JOINT spine_3
			{
				OFFSET	0	206.5	19.3
				CHANNELS 3  Xrotation Yrotation Zrotation
				JOINT spine_4
				{
					OFFSET	0	110.4	14.6
					CHANNELS 3  Xrotation Yrotation Zrotation
					JOINT neck_1
					{
						OFFSET	0	71.8	-50.3
						CHANNELS 3  Xrotation Yrotation Zrotation
						JOINT neck_2
						{
							OFFSET	0	86.2	-25.8
							CHANNELS 3  Xrotation Yrotation Zrotation
							JOINT head_ee
							{
								OFFSET	0	179.8	-8.7
								CHANNELS 3  Xrotation Yrotation Zrotation
								End Site
								{
									OFFSET	1	0	0
								}
							}
						}
					}
					JOINT left_clavicle
					{
						OFFSET	-43.2	22.4	-70.8
						CHANNELS 3  Xrotation Yrotation Zrotation
						JOINT left_shoulder
						{
							OFFSET	-93.9	-5.79999	48.7
							CHANNELS 3  Xrotation Yrotation Zrotation
							JOINT left_elbow
							{
								OFFSET	-291.4	-30.8	15.2
								CHANNELS 3  Xrotation Yrotation Zrotation
								JOINT left_lowarm_twist
								{
									OFFSET	-110.7	-3.89999	13.6
									CHANNELS 3  Xrotation Yrotation Zrotation
									JOINT left_hand
									{
										OFFSET	-110.7	-3.89999	13.6
										CHANNELS 3  Xrotation Yrotation Zrotation
										JOINT left_ee
										{
											OFFSET	-80.8	-5.10001	12.1
											CHANNELS 3  Xrotation Yrotation Zrotation
											End Site
											{
												OFFSET	1	0	0
											}
										}
									}
								}
							}
						}
					}
					JOINT right_clavicle
					{
						OFFSET	43.2	22.4	-70.8
						CHANNELS 3  Xrotation Yrotation Zrotation
						JOINT right_shoulder
						{
							OFFSET	93.9	-5.79999	48.7
							CHANNELS 3  Xrotation Yrotation Zrotation
							JOINT right_elbow
							{
								OFFSET	291.4	-30.8	15.2
								CHANNELS 3  Xrotation Yrotation Zrotation
								JOINT right_lowarm_twist
								{
									OFFSET	110.7	-3.89999	13.6
									CHANNELS 3  Xrotation Yrotation Zrotation
									JOINT right_hand
									{
										OFFSET	110.7	-3.89999	13.6
										CHANNELS 3  Xrotation Yrotation Zrotation
										JOINT right_ee
										{
											OFFSET	80.8	-5.10001	12.1
											CHANNELS 3  Xrotation Yrotation Zrotation
											End Site
											{
												OFFSET	1	0	0
											}
										}
									}
								}
							}
						}
					}
				}
			}
		}
	}
	JOINT left_hip
	{
		OFFSET	-82.8	-127.5	0.300001
		CHANNELS 3  Xrotation Yrotation Zrotation
		JOINT left_knee
		{
			OFFSET	-28.2	-396.7	2.2
			CHANNELS 3  Xrotation Yrotation Zrotation
			JOINT left_ankle
			{
				OFFSET	-11.7	-411.3	35.4
				CHANNELS 3  Xrotation Yrotation Zrotation
				JOINT left_toes
				{
					OFFSET	0	-60	-88.6
					CHANNELS 3  Xrotation Yrotation Zrotation
					JOINT left_foot_ee
					{
						OFFSET	-22.5	-16.5	-42.2
						CHANNELS 3  Xrotation Yrotation Zrotation
						End Site
						{
							OFFSET	1	0	0
						}
					}
				}
			}
		}
	}
	JOINT right_hip
	{
		OFFSET	82.8	-127.5	0.300001
		CHANNELS 3  Xrotation Yrotation Zrotation
		JOINT right_knee
		{
			OFFSET	28.2	-396.7	2.2
			CHANNELS 3  Xrotation Yrotation Zrotation
			JOINT right_ankle
			{
				OFFSET	11.7	-411.3	35.4
				CHANNELS 3  Xrotation Yrotation Zrotation
				JOINT right_toes
				{
					OFFSET	0	-60	-88.6
					CHANNELS 3  Xrotation Yrotation Zrotation
					JOINT right_foot_ee
					{
						OFFSET	22.5	-16.5	-42.2
						CHANNELS 3  Xrotation Yrotation Zrotation
						End Site
						{
							OFFSET	1	0	0
						}
					}
				}
			}
		}
	}
}
MOTION
Frames: 5
Frame Time: 0.02
1166.42368677 741.277 -1779.47507807 6.46223803216 50.4769663695 -1.47720644885 -2.67777 -0.43339 -2.4084 -2.67459 -0.279306 -2.43108 -2.6586 0.350723 -2.42181 -2.66678 -0.0360397 -2.44679 2.7882 -0.679672 -0.639278 2.78932 -0.642212 -0.760703 -0.0 0.0 -0.0 10.8359 -4.39073 21.5999 -10.0001 -11.4706 65.2281 0.214824 -6.07455 0.0113986 -27.7334 -1.7508 3.04797 0.337286 6.99683 5.11693 -0.0 0.0 -0.0 4.1643 -10.3107 -8.38844 1.29238 16.3736 -55.5846 1.97797 44.4113 -0.807489 34.8951 0.1107 4.38811 -1.52851 -21.0017 0.565526 0.0 0.0 0.0 28.4213 -22.8195 5.34541 -66.0618 -2.88886 9.15782 -16.0641 25.9966 2.52375 30.4504 -0.0 -0.0 -0.0 0.0 -0.0 6.42951 -14.812 -1.79369 -14.9522 -0.321602 -2.26555 12.5382 17.0494 1.94444 28.5386 -0.0 -0.0 0.0 0.0 0.0 
1149.22552356 744.737 -1796.25346554 7.05016276011 51.9931537929 -1.8564605275 -2.82712 -0.566456 -2.45534 -2.82385 -0.409118 -2.48639 -2.80142 0.245484 -2.50782 -2.81016 -0.153531 -2.51512 2.38487 -0.445522 -0.131634 2.38525 -0.668596 -0.18041 -0.0 0.0 -0.0 11.0274 -3.53123 21.9816 -11.3981 -10.1996 64.5436 0.185482 -5.24986 0.00850351 -26.5989 -1.65133 2.94189 0.496822 7.22177 6.25004 -0.0 0.0 -0.0 4.06126 -9.27064 -8.18374 3.35123 16.0548 -55.8443 2.13422 46.5877 -0.918957 35.6788 0.143785 4.48267 -1.21199 -19.8053 -0.764774 0.0 0.0 0.0 30.9003 -20.5303 7.58755 -66.9595 -2.99645 9.2452 -17.5299 26.5171 2.76466 30.0251 -0.0 -0.0 -0.0 0.0 -0.0 4.90285 -15.0166 -1.65198 -15.088 -0.321797 -2.28639 12.784 16.2316 1.96773 28.8477 -0.0 -0.0 0.0 0.0 0.0 
1128.22124236 743.846 -1803.9298846 8.09354076686 54.0793569094 -2.84059354552 -2.95949 -0.50475 -2.56028 -2.95591 -0.340867 -2.58718 -2.93547 0.343551 -2.58683 -2.9448 -0.0691577 -2.60861 2.3085 -0.644846 0.455747 2.3118 -1.51509 0.452855 -0.0 0.0 -0.0 10.925 -2.88317 21.7345 -12.4793 -9.05037 64.3124 0.20223 -5.72089 0.0101045 -25.9128 -1.5922 2.87679 0.637789 7.66008 7.34553 -0.0 0.0 -0.0 3.93064 -9.29526 -7.95495 5.64212 14.7904 -55.9154 2.20817 47.5604 -0.973103 36.2321 0.167924 4.54917 -1.00236 -18.4974 -1.44533 0.0 0.0 0.0 31.7202 -19.9131 8.24074 -68.1056 -3.1358 9.35431 -18.3867 27.1316 2.91141 29.6058 -0.0 -0.0 -0.0 0.0 -0.0 4.28225 -15.8663 -0.956922 -17.1255 -0.318783 -2.59897 12.9673 15.2809 1.98008 29.1856 -0.0 -0.0 0.0 0.0 0.0 
1088.85671694 739.554 -1806.67758967 11.5979344593 56.418289477 -5.44395863985 -3.16027 -0.504607 -2.6907 -3.15631 -0.332432 -2.71733 -3.1348 0.395009 -2.70895 -3.14504 -0.0376096 -2.73732 2.13752 -0.632006 0.437981 2.14059 -1.47817 0.432005 -0.0 0.0 -0.0 10.2476 -2.62194 20.2837 -13.6682 -7.30851 66.3618 0.210412 -5.9507 0.0109364 -25.3037 -1.54038 2.81841 0.837788 8.06796 8.81457 -0.0 0.0 -0.0 3.86711 -7.90775 -7.79883 6.61899 14.7944 -55.9021 2.30237 48.7492 -1.04328 36.4775 0.178838 4.57859 -0.596251 -16.7275 -3.15767 0.0 0.0 0.0 33.1529 -16.84 2.60071 -65.948 -2.87532 9.14662 -24.95 21.6726 3.85199 26.0511 -0.0 -0.0 -0.0 0.0 -0.0 2.5264 -19.3229 -0.300082 -22.1947 -0.263113 -3.37453 14.8264 16.9058 2.27325 30.0609 -0.0 -0.0 0.0 0.0 0.0 
1067.38181208 734.354 -1814.30897963 12.0553594962 56.9640448569 -4.97232503584 -2.96827 -0.296358 -2.89043 -2.96363 -0.111911 -2.90341 -2.95221 0.64804 -2.83244 -2.96335 0.192773 -2.89917 -0.36154 -0.760772 0.24708 -0.359476 -1.55995 0.180425 -0.0 0.0 -0.0 9.54964 -2.48159 18.8136 -14.9971 -6.04771 67.725 0.251276 -7.09555 0.0155791 -25.0837 -1.52181 2.7972 1.13111 8.45417 10.8904 -0.0 0.0 -0.0 4.25836 -6.79938 -8.46849 10.6779 15.1508 -56.7882 2.36466 49.5056 -1.09038 36.5597 0.182521 4.58843 -0.224994 -14.3635 -4.48313 0.0 0.0 0.0 35.0705 -15.031 -1.3398 -55.1181 -1.69653 7.96608 -24.5139 18.5823 3.74342 22.083 -0.0 -0.0 -0.0 0.0 -0.0 1.03376 -24.1338 -1.17945 -23.4296 -0.239173 -3.56252 16.8339 18.0482 2.58018 30.7557 -0.0 -0.0 0.0 0.0 0.0 
